PathFileType	4	(X/Y/Z)	RBDS011\RBDS011runT45.trc
DataRate	CameraRate	NumFrames	NumMarkers	Units	OrigDataRate	OrigDataStartFrame	OrigNumFrames
150.000000	150.000000	4	33	mm	150.000000	2812	4500
Frame#	Time	L.ASIS			L.Heel.Bottom			L.Heel.Lateral			L.Heel.Top			L.Iliac.Crest			L.MT1			L.MT5			L.PSIS			L.Shank.Bottom.Lateral			L.Shank.Bottom.Medial			L.Shank.Top.Lateral			L.Shank.Top.Medial			L.Thigh.Bottom.Lateral			L.Thigh.Bottom.Medial			L.Thigh.Top.Lateral			L.Thigh.Top.Medial			R.ASIS			R.ASY			R.Heel.Bottom			R.Heel.Lateral			R.Heel.Top			R.Iliac.Crest			R.MT1			R.MT5			R.PSIS			R.Shank.Bottom.Lateral			R.Shank.Bottom.Medial			R.Shank.Top.Lateral			R.Shank.Top.Medial			R.Thigh.Bottom.Lateral			R.Thigh.Bottom.Medial			R.Thigh.Top.Lateral			R.Thigh.Top.Medial			
		X1	Y1	Z1	X2	Y2	Z2	X3	Y3	Z3	X4	Y4	Z4	X5	Y5	Z5	X6	Y6	Z6	X7	Y7	Z7	X8	Y8	Z8	X9	Y9	Z9	X10	Y10	Z10	X11	Y11	Z11	X12	Y12	Z12	X13	Y13	Z13	X14	Y14	Z14	X15	Y15	Z15	X16	Y16	Z16	X17	Y17	Z17	X18	Y18	Z18	X19	Y19	Z19	X20	Y20	Z20	X21	Y21	Z21	X22	Y22	Z22	X23	Y23	Z23	X24	Y24	Z24	X25	Y25	Z25	X26	Y26	Z26	X27	Y27	Z27	X28	Y28	Z28	X29	Y29	Z29	X30	Y30	Z30	X31	Y31	Z31	X32	Y32	Z32	X33	Y33	Z33	

2813	18.74666666666667	2429.678538038962	1001.439198532713	928.7223720841959	2350.236488712758	183.6840222592135	1009.684853104783	2376.899621400787	184.6138056990144	969.0856578519314	2379.148790541655	223.3168833563242	1008.831051871714	2361.615273040431	1078.569645165039	897.0379897979362	2561.273898602134	100.1327895276451	1040.581324599086	2525.900421817539	102.8040727159504	930.6032765277647	2262.835438069676	1033.21156564717	1005.041284020938	2465.58601671054	288.5672493226759	945.2854738771942	2434.277217559587	305.0168806198208	987.9549352636459	2487.094509775911	365.5302993003691	932.5371134644198	2457.226968729171	381.8879660297827	974.3827857311154	2564.252707369558	691.7988550673973	895.8767245667235	2518.818789952111	646.5680301421407	930.0225768003982	2479.949474235103	760.4451310918464	880.1546037227013	2436.843530573762	718.8292073302916	913.1767284091776	2429.992576320449	975.137643477109	1174.030258933234	1974.650732227305	110.6259542270354	1088.923591147385	1804.060367116574	195.0169519333796	1094.737811898585	1835.822377821669	185.7635763961741	1134.489872316142	1844.983280446211	223.0732475264138	1097.485383736624	2403.117773340849	1039.139921146443	1204.856863627732	1961.76983967152	53.25926130979057	1029.711831684869	1942.108509437878	55.67377772973845	1149.512664287177	2266.929978005255	1032.308172689274	1109.055664377324	1934.261318828292	254.4188235744963	1146.852871542103	1913.165474229566	283.6063990886672	1110.600892305154	1985.397051284972	319.4599623724404	1167.057825368715	1957.996694980461	347.8635918660503	1130.576093988197	2213.683306923419	628.336735123255	1202.898056310228	2159.927285059659	652.0511957661101	1158.576540877399	2242.533766379232	732.3742347830221	1220.544904828222	2192.179619418267	755.7113790649046	1179.978940926751	
2814	18.75333333333333	2431.760249862507	1006.39968708912	929.6511578310934	2383.016207398271	163.0222328676071	1012.353643036823	2409.217467969131	166.1674235689582	971.5927979087693	2408.144903407745	205.0186244222152	1011.126744107283	2364.218403055114	1084.966887869203	897.8674064379089	2600.442486765374	99.07829479038577	1042.797306162731	2564.55176643652	98.14099652834201	932.9680826861809	2265.070111993906	1038.973374408166	1005.614899986519	2488.127854323452	278.177802834559	947.0777482108259	2456.147095720931	291.9902858999995	990.1309862119845	2503.253210818763	356.6336881977272	933.9829843328438	2472.622538410453	370.4246127448981	976.2384621810656	2562.716347589731	693.312067721529	897.222033087286	2516.080263450765	648.4537283612009	930.3376628658639	2479.677708292783	763.3561507482304	881.0810899478316	2435.517700280835	722.1586702431243	913.1537756289381	2431.318889572002	977.0817413435577	1173.89122362717	1955.27280921022	115.4960522132438	1091.683304980665	1792.163903936537	213.5176223815134	1101.662469779537	1824.078014925205	201.1516294100453	1140.555075146453	1835.408984474886	237.8911026475271	1103.676674868903	2408.693280771097	1042.494483179589	1204.083317379213	1936.22293492442	59.4195976002422	1032.249074215966	1919.2236059661	61.28760642797229	1151.867532252204	2269.188923019724	1037.717144083152	1110.018515214559	1922.496284086337	263.8153234370423	1150.936764339531	1901.029173994624	292.8361346471452	1114.679498799697	1974.217424627932	328.8304815978457	1169.84158605546	1946.424933124252	357.0970601181858	1133.574676997119	2206.358369522226	635.6754673974233	1201.45387712075	2153.993797246123	661.0140563636129	1156.335592135329	2238.349787319346	738.7505651405044	1219.245285689771	2189.400135424454	763.595484522373	1177.80466634976	
2815	18.76	2433.640243555284	1010.592417400032	930.8190806244361	2416.069485486805	144.4105495200694	1014.727543601033	2441.768566483773	149.6841359013114	973.8585053881741	2437.243848849737	188.4138277277566	1013.127057051294	2366.659430781211	1090.617003617685	898.8315466768039	2637.907530581127	100.6401875166184	1045.453973901289	2602.344289508392	95.89871451415948	935.6616216698405	2267.191713914074	1044.475819899362	1006.178746594352	2510.2927813968	268.8803435834342	948.7430389849444	2477.767033454049	280.1421521224447	992.067941324822	2519.086029528588	348.2145117935117	935.227172310901	2487.794511546231	359.5482181968815	977.7735190808827	2560.359936284708	693.6471469617268	897.9926749209482	2512.581084054005	649.321709908062	930.327183907404	2478.720741673665	765.2745593396197	881.6966034286437	2433.548169237483	724.6221958893369	913.0106521836778	2432.347858623944	978.9221967722248	1174.016964299392	1936.419736632072	121.5115594760675	1094.461785293896	1781.678044750133	232.4065192903803	1108.66321202988	1813.520009972761	217.0613201897028	1146.708505897237	1826.971415524164	252.9666204703805	1109.856402886112	2413.144039320337	1045.656417683172	1203.509564176607	1911.509750961812	67.01112038439275	1035.048087524345	1897.088727172299	68.32818246839301	1154.347443209722	2271.175867852425	1042.992026118509	1110.866124211652	1911.904809981958	273.3351014360834	1155.005017888691	1890.084405056077	302.3424114374855	1118.848854591697	1964.483207328567	338.0487758217196	1172.578646191402	1936.34053399184	366.3503242250146	1136.649575155448	2200.529745711592	642.086932712919	1199.773670739352	2149.432159297286	668.7841083519854	1153.96122056773	2235.144760916442	744.2634450789704	1217.806359647684	2187.481001420503	770.4011468685877	1175.582688180617	
2816	18.76666666666667	2435.271097937885	1013.993386464395	932.1891861279469	2448.866090459677	128.0344710314845	1016.803081655872	2474.048859314222	135.3213082315403	975.8779766381014	2465.982429974742	173.6755478980272	1014.805111954088	2368.950098266107	1095.472433054797	899.8784133383996	2673.140323144024	104.6863247875869	1048.511053210184	2638.752621206999	96.0012611203683	938.6641326479639	2269.150320949026	1049.619377096261	1006.69181007655	2531.751282476587	260.7807619921459	950.2561277374274	2498.771665207057	269.6017362445892	993.7349056427647	2534.342835753065	340.4085419738868	936.2589501208583	2502.471365515403	349.4187407127891	978.9726138108492	2557.23835544714	692.9069760885976	898.1269663822557	2508.448724229813	649.3012552712451	930.0329755044728	2477.086934273096	766.2357491985258	881.9214150121113	2431.0089284835	726.2812463433675	912.7775216120359	2433.139814592845	980.6692569454028	1174.377330926197	1918.110550575034	128.8446005800069	1097.25519184334	1772.35354640458	251.6423310024857	1115.371412901713	1803.863751738989	233.5227888880973	1152.657481609103	1819.385119471365	268.357722122591	1115.741229278313	2416.406670454792	1048.703691464817	1203.165867788731	1887.796925439257	76.12597966855772	1038.0609522788	1875.691251140054	76.98795272058541	1156.936593662625	2272.874758684727	1048.016417124494	1111.575775568887	1902.278465280641	283.1593941050751	1158.904887845709	1880.221431417204	312.3210612400553	1122.921542552935	1956.031031249127	347.2103843182174	1175.182407064018	1927.677883865219	375.7431085474763	1139.660502117537	2196.33528062423	647.3741221420795	1197.96028131016	2146.299163994848	675.1683729161641	1151.624070975474	2233.032933020331	748.759855003629	1216.343172340239	2186.443280048135	775.9737844987006	1173.51788513473	
